<?xml version="1.0" standalone="no"?>
<!DOCTYPE svg PUBLIC "-//W3C//DTD SVG 20010904//EN"
 "http://www.w3.org/TR/2001/REC-SVG-20010904/DTD/svg10.dtd">
<svg version="1.0" xmlns="http://www.w3.org/2000/svg"
 width="351.000000pt" height="351.000000pt" viewBox="0 0 351.000000 351.000000"
 preserveAspectRatio="xMidYMid meet">
<metadata>
Created by potrace 1.14, written by Peter Selinger 2001-2017
</metadata>
<g transform="translate(0.000000,351.000000) scale(0.100000,-0.100000)"
fill="#000000" stroke="none">
<path d="M1855 3254 c-192 -19 -336 -53 -482 -114 -452 -189 -791 -598 -893
-1078 -27 -124 -37 -373 -21 -497 83 -636 545 -1139 1180 -1286 137 -32 412
-37 566 -11 244 42 457 134 654 283 94 70 151 149 181 248 20 65 20 88 18 976
l-3 910 -37 78 c-45 93 -108 160 -228 239 -174 114 -391 201 -580 232 -100 16
-287 27 -355 20z m692 -588 c117 -54 192 -161 201 -288 6 -85 -21 -146 -81
-186 l-40 -27 -354 -3 -354 -3 -72 75 c-62 64 -80 77 -129 91 -74 21 -131 13
-200 -29 -139 -83 -160 -275 -43 -391 23 -24 58 -48 78 -54 l37 -13 0 -88 0
-88 -29 -7 c-41 -9 -115 -77 -140 -128 -25 -51 -28 -150 -7 -201 21 -51 76
-107 131 -132 109 -51 232 -18 307 82 21 27 50 54 65 61 37 16 641 18 696 2
50 -14 113 -71 128 -116 6 -21 9 -64 7 -103 -9 -126 -96 -243 -217 -292 -55
-23 -61 -23 -586 -26 -554 -3 -622 1 -697 39 -62 32 -125 96 -155 158 l-28 56
-3 681 c-2 667 -2 683 18 737 23 62 85 137 140 172 85 54 90 54 700 52 l565
-2 62 -29z m-307 -744 c248 -89 355 -132 355 -142 0 -13 -38 -15 -250 -18
l-251 -2 -29 30 c-35 37 -42 37 -77 3 -34 -32 -35 -49 -6 -80 28 -30 59 -29
88 2 l23 25 254 0 c244 0 281 -5 235 -29 -18 -9 -679 -249 -714 -258 -13 -4
-19 5 -27 34 -14 52 -64 119 -107 145 l-34 20 0 103 c0 94 2 104 19 110 39 12
100 86 118 141 12 41 21 53 32 49 9 -3 176 -63 371 -133z m544 -152 c31 -16
33 -26 6 -35 -11 -4 -31 -22 -44 -42 l-24 -35 -16 31 c-9 17 -31 38 -48 47
l-32 17 36 18 c21 11 41 31 48 50 l13 31 18 -34 c9 -18 29 -40 43 -48z m-1124
-20 c0 -64 -3 -80 -15 -80 -12 0 -15 16 -15 80 0 64 3 80 15 80 12 0 15 -16
15 -80z"/>
</g>
</svg>
