<?xml version="1.0" standalone="no"?>
<!DOCTYPE svg PUBLIC "-//W3C//DTD SVG 20010904//EN"
 "http://www.w3.org/TR/2001/REC-SVG-20010904/DTD/svg10.dtd">
<svg version="1.0" xmlns="http://www.w3.org/2000/svg"
 width="3400.000000pt" height="3400.000000pt" viewBox="0 0 3400.000000 3400.000000"
 preserveAspectRatio="xMidYMid meet">
<metadata>
Created by potrace 1.14, written by Peter Selinger 2001-2017
</metadata>
<g transform="translate(0.000000,3400.000000) scale(0.100000,-0.100000)"
fill="#000000" stroke="none">
<path d="M17302 31979 c-203 -43 -345 -114 -474 -237 -133 -127 -208 -263
-261 -470 -19 -77 -22 -113 -22 -312 0 -236 8 -297 57 -465 102 -343 266 -571
887 -1230 386 -409 493 -632 493 -1025 1 -269 -64 -420 -210 -492 -65 -32 -70
-33 -192 -32 -144 0 -206 18 -278 79 -98 85 -119 162 -128 472 l-7 233 -310 0
-309 0 7 -252 c4 -139 13 -305 20 -370 35 -305 176 -510 436 -632 167 -79 366
-111 639 -103 146 4 191 9 274 31 181 49 310 122 427 243 219 226 299 512 277
994 -11 254 -62 457 -165 663 -98 195 -215 352 -467 626 -79 85 -167 183 -197
216 -30 34 -102 115 -161 180 -224 250 -356 432 -401 552 -55 149 -69 309 -42
467 38 216 130 287 370 288 111 1 125 -1 183 -27 101 -47 156 -121 193 -264
15 -60 21 -125 26 -289 l6 -213 309 0 308 0 0 118 c0 148 -16 361 -36 475 -73
424 -324 698 -715 777 -135 28 -403 27 -537 -1z"/>
<path d="M25005 31989 c-388 -52 -622 -254 -755 -649 -73 -218 -103 -418 -125
-825 -31 -596 -29 -1373 5 -1948 37 -607 144 -960 360 -1178 190 -193 397
-258 778 -246 241 7 377 42 518 132 273 175 422 512 479 1085 59 602 56 2016
-6 2535 -36 309 -121 572 -238 743 -51 75 -150 170 -228 220 -145 92 -305 132
-553 137 -91 2 -196 0 -235 -6z m389 -618 c131 -52 200 -176 242 -441 15 -91
18 -228 21 -1051 5 -975 -4 -1437 -32 -1641 -41 -304 -119 -451 -264 -496 -77
-23 -229 -23 -298 1 -137 48 -223 204 -262 477 -25 170 -31 291 -41 805 -12
571 0 1557 21 1758 38 376 123 546 298 602 71 22 239 15 315 -14z"/>
<path d="M27440 31993 c-320 -56 -563 -233 -686 -498 -126 -273 -177 -717
-190 -1655 -13 -946 28 -1713 106 -2019 70 -274 217 -469 435 -577 118 -58
204 -82 347 -95 283 -26 505 39 665 196 83 80 72 88 94 -67 l12 -88 235 0 235
0 -6 728 c-4 400 -7 987 -7 1305 l0 577 -560 0 -560 0 0 -275 0 -275 260 0
260 0 0 -586 c0 -649 -1 -666 -64 -779 -38 -69 -100 -121 -179 -151 -40 -15
-78 -19 -167 -19 -103 0 -121 3 -170 26 -73 34 -120 76 -153 137 -71 131 -100
427 -117 1222 -18 836 16 1748 76 2011 40 176 174 284 354 284 196 0 299 -102
335 -330 17 -107 45 -473 45 -592 l0 -73 312 0 311 0 -6 253 c-8 314 -30 572
-62 702 -85 346 -328 565 -699 630 -83 14 -389 20 -456 8z"/>
<path d="M5310 29580 l0 -2390 895 0 895 0 0 300 0 300 -585 0 -585 0 0 750 0
750 535 0 535 0 0 300 0 300 -535 0 -535 0 0 735 0 735 580 0 580 0 0 305 0
305 -890 0 -890 0 0 -2390z"/>
<path d="M7377 31963 c-4 -3 -7 -1079 -7 -2390 l0 -2383 296 0 297 0 -5 1613
c-2 886 -3 1605 -1 1597 2 -8 32 -190 68 -405 80 -471 187 -1105 260 -1540 30
-176 86 -507 124 -735 75 -444 80 -473 87 -507 l4 -23 283 0 283 0 48 278
c100 584 117 680 136 792 11 63 36 207 55 320 19 113 42 243 50 290 8 47 31
177 50 290 19 113 44 257 55 320 11 63 36 207 55 320 45 264 62 362 85 485 18
99 18 82 19 -1497 l1 -1598 290 0 290 0 0 2390 0 2390 -402 -2 -403 -3 -22
-125 c-52 -300 -77 -437 -109 -615 -18 -104 -36 -203 -39 -220 -10 -54 -104
-585 -141 -790 -19 -110 -42 -236 -50 -280 -21 -115 -78 -435 -109 -610 -14
-82 -39 -224 -56 -315 -16 -91 -36 -208 -46 -260 -42 -242 -28 -274 -121 281
-45 272 -150 897 -233 1389 -83 492 -154 920 -159 950 -5 30 -29 176 -54 324
-25 149 -46 271 -46 273 0 6 -827 3 -833 -4z"/>
<path d="M10620 29580 l0 -2390 325 0 325 0 0 2390 0 2390 -325 0 -325 0 0
-2390z"/>
<path d="M11690 29580 l0 -2390 890 0 890 0 0 300 0 300 -570 0 -570 0 0 2090
0 2090 -320 0 -320 0 0 -2390z"/>
<path d="M13020 31957 c0 -12 33 -129 135 -477 32 -107 61 -208 65 -225 4 -16
38 -133 74 -260 76 -261 134 -458 201 -690 26 -88 62 -212 80 -275 33 -113
154 -533 261 -903 l54 -188 0 -875 0 -874 325 0 325 0 0 873 0 872 91 295
c301 980 438 1424 584 1900 90 294 184 600 209 680 25 80 46 148 46 153 0 4
-143 7 -319 7 l-318 0 -17 -62 c-10 -35 -31 -108 -47 -163 -62 -211 -129 -448
-184 -645 -31 -113 -65 -232 -75 -265 -56 -177 -250 -932 -266 -1035 l-7 -45
-14 65 c-52 242 -101 454 -149 640 -31 118 -76 294 -100 390 -130 508 -240
926 -280 1068 l-15 52 -329 0 c-258 0 -330 -3 -330 -13z"/>
<path d="M15694 31438 c3 -293 9 -712 13 -930 l6 -398 274 0 273 0 0 73 c0 39
7 407 15 817 8 410 15 796 15 858 l0 112 -302 0 -301 0 7 -532z"/>
<path d="M19810 29581 l0 -2391 704 0 c761 0 790 2 933 55 148 56 314 216 384
370 65 143 99 388 106 756 6 307 -11 529 -58 763 -34 172 -68 244 -161 342
-74 78 -155 127 -253 155 -47 13 -56 18 -40 24 86 31 153 71 209 125 96 92
136 178 181 385 67 312 64 934 -5 1246 -53 237 -163 389 -345 475 -38 19 -106
44 -150 56 -79 22 -92 22 -792 26 l-713 3 0 -2390z m1186 1797 c66 -35 117
-92 142 -160 11 -30 31 -118 43 -194 20 -121 23 -174 22 -419 0 -304 -12 -409
-59 -547 -29 -86 -62 -131 -117 -161 -40 -21 -54 -22 -324 -25 l-283 -3 0 771
0 771 263 -3 c262 -3 262 -3 313 -30z m10 -2059 c152 -27 200 -101 241 -369
23 -150 26 -792 4 -935 -21 -142 -60 -203 -156 -247 -48 -22 -61 -23 -362 -26
l-313 -3 0 795 0 796 263 0 c145 0 290 -5 323 -11z"/>
<path d="M22280 29580 l0 -2390 895 0 895 0 -2 298 -3 297 -572 3 -573 2 0
2090 0 2090 -320 0 -320 0 0 -2390z"/>
<path d="M16565 23863 c-96 -6 -420 -42 -535 -59 -815 -124 -1585 -398 -2307
-820 -1294 -758 -2284 -1910 -2836 -3304 -543 -1371 -599 -2884 -160 -4325
104 -341 213 -612 390 -965 302 -605 585 -1017 1073 -1560 419 -467 672 -836
921 -1345 319 -654 521 -1399 579 -2135 5 -74 13 -159 16 -187 l5 -53 -89 0
c-216 0 -444 -69 -607 -185 -75 -53 -258 -241 -308 -318 -176 -266 -225 -623
-126 -928 102 -317 331 -560 647 -689 l82 -34 0 -1070 c0 -1073 8 -1400 35
-1508 47 -185 189 -405 340 -527 171 -137 356 -208 596 -227 l76 -5 6 -257 c8
-354 28 -453 133 -666 137 -276 400 -517 686 -626 29 -11 89 -30 133 -43 l80
-22 1600 0 c1524 0 1604 1 1679 19 348 81 695 370 851 709 83 180 103 298 112
639 l6 247 76 5 c398 30 702 237 884 602 66 132 67 143 77 914 5 382 9 948 9
1256 l1 562 63 23 c252 93 482 297 600 534 173 347 150 776 -60 1092 -50 77
-233 265 -308 318 -158 112 -343 171 -568 182 l-128 6 5 41 c3 23 10 106 16
186 56 736 275 1531 605 2189 250 500 487 841 931 1342 451 509 752 944 1014
1469 473 946 702 1911 701 2965 0 732 -113 1427 -340 2097 -629 1848 -2025
3320 -3821 4025 -510 200 -1216 372 -1695 412 -206 17 -980 34 -1140 24z m786
-573 c714 -37 1472 -221 2109 -513 178 -82 223 -104 365 -180 1413 -757 2486
-2078 2929 -3602 196 -676 262 -1280 226 -2055 -28 -583 -179 -1269 -408
-1845 -276 -698 -640 -1268 -1230 -1929 -495 -554 -863 -1142 -1137 -1816
-210 -520 -358 -1076 -429 -1615 -13 -97 -56 -570 -56 -614 0 -8 -199 -11
-710 -11 l-710 0 0 3230 0 3230 408 0 c461 0 709 12 850 39 752 148 1280 848
1222 1620 -28 368 -178 689 -445 956 -226 227 -479 362 -795 425 -165 33 -407
34 -570 1 -480 -97 -876 -401 -1089 -836 -131 -266 -139 -319 -151 -915 -5
-256 -10 -520 -10 -587 l0 -123 -719 0 -718 0 -6 523 c-3 287 -10 565 -16 617
-38 356 -202 679 -478 940 -150 142 -355 261 -576 335 -183 61 -239 68 -505
62 -218 -4 -245 -6 -330 -31 -300 -84 -535 -225 -739 -439 -110 -116 -169
-198 -236 -325 -74 -141 -119 -268 -152 -428 -23 -111 -27 -153 -27 -299 0
-184 17 -300 68 -460 122 -386 437 -746 804 -919 280 -132 461 -155 1223 -156
l387 0 0 -3230 0 -3230 -709 0 -709 0 -6 62 c-38 462 -59 643 -111 923 -156
849 -468 1631 -930 2330 -190 287 -351 493 -619 790 -763 845 -1237 1745
-1470 2795 -161 726 -180 1587 -50 2333 143 827 519 1710 1032 2426 555 775
1302 1426 2132 1859 725 378 1482 593 2335 665 96 8 570 6 756 -3z m-2371
-5256 c310 -78 569 -323 675 -637 36 -109 44 -249 45 -795 l0 -453 -547 4
c-626 5 -627 5 -802 88 -351 167 -561 491 -561 866 0 199 54 377 160 533 49
71 188 209 265 262 225 154 491 200 765 132z m4500 5 c168 -38 377 -167 497
-306 95 -109 160 -232 203 -383 31 -107 38 -306 15 -419 -37 -183 -120 -345
-243 -473 -89 -93 -165 -149 -277 -205 -192 -96 -185 -95 -827 -100 l-548 -4
0 443 c1 685 10 770 110 955 212 395 636 590 1070 492z m-1760 -5699 l0 -3230
-720 0 -720 0 0 3230 0 3230 720 0 720 0 0 -3230z m1680 -3799 l1075 -8 66
-25 c132 -49 243 -149 312 -282 32 -61 32 -62 32 -211 l0 -150 -40 -80 c-54
-108 -142 -197 -252 -253 l-81 -42 -3512 0 -3512 0 -81 42 c-110 56 -198 145
-252 253 l-40 80 0 150 0 150 40 75 c68 129 200 240 330 280 77 24 3760 37
5915 21z m707 -2813 c-4 -1198 -5 -1224 -42 -1301 -28 -57 -148 -174 -191
-186 -131 -35 -225 -36 -2987 -33 l-2709 2 -46 27 c-73 42 -195 170 -210 221
-27 89 -31 280 -32 1345 l0 1097 3110 0 3111 0 -4 -1172z m-1027 -2170 c0
-119 -20 -381 -35 -452 -8 -39 -33 -109 -56 -156 -34 -68 -59 -102 -128 -171
-134 -133 -258 -195 -426 -210 -131 -12 -2739 -12 -2871 0 -167 15 -288 75
-424 211 -99 99 -161 208 -185 326 -15 71 -35 333 -35 452 l0 62 2080 0 2080
0 0 -62z"/>
<path d="M8555 23073 c-129 -16 -301 -71 -435 -138 -426 -215 -701 -569 -801
-1034 -33 -151 -37 -392 -10 -548 62 -360 233 -661 503 -890 200 -170 404
-269 663 -324 160 -34 432 -34 589 -1 534 115 941 481 1115 1003 49 145 61
237 61 453 0 225 -13 320 -65 472 -84 245 -206 436 -389 611 -217 208 -496
348 -773 387 -102 15 -372 20 -458 9z m408 -579 c162 -37 320 -127 447 -254
178 -179 262 -383 262 -640 0 -135 -19 -240 -66 -356 -45 -110 -95 -183 -196
-285 -192 -194 -379 -273 -645 -273 -153 0 -248 21 -378 82 -104 49 -185 111
-281 213 -126 134 -199 280 -231 466 -44 251 25 517 187 720 219 276 568 402
901 327z"/>
<path d="M25045 23074 c-400 -59 -781 -297 -1005 -629 -113 -166 -203 -382
-235 -564 -20 -112 -20 -432 0 -566 30 -198 116 -398 253 -585 236 -322 524
-509 909 -592 157 -33 430 -33 587 0 304 65 527 186 738 399 128 129 178 190
240 296 294 503 273 1136 -54 1615 -72 106 -282 314 -388 384 -168 111 -361
193 -527 223 -85 16 -450 29 -518 19z m450 -592 c426 -114 717 -542 665 -979
-27 -233 -113 -408 -279 -566 -93 -88 -149 -128 -245 -173 -131 -60 -215 -78
-361 -78 -169 -1 -273 23 -422 96 -333 163 -539 544 -494 913 15 127 35 197
85 300 114 237 338 423 598 495 101 27 334 23 453 -8z"/>
<path d="M25284 14620 c-18 -6 -53 -25 -80 -42 -40 -28 -61 -56 -134 -183 -48
-82 -120 -211 -160 -285 -236 -432 -385 -644 -630 -894 -266 -272 -473 -418
-1020 -721 -261 -144 -370 -217 -402 -267 -53 -81 -60 -189 -17 -273 41 -79
61 -93 349 -255 622 -348 766 -445 1010 -677 162 -154 363 -395 485 -583 23
-36 122 -209 220 -385 198 -357 250 -441 301 -483 86 -71 245 -70 341 4 37 28
100 132 293 479 264 475 373 629 640 896 266 266 404 370 766 575 101 57 268
152 372 210 103 58 202 117 221 131 67 51 103 180 81 287 -20 97 -70 139 -335
286 -377 208 -499 279 -652 382 -56 37 -146 103 -200 147 -110 88 -355 332
-463 461 -103 123 -241 334 -378 580 -287 515 -310 550 -387 589 -54 28 -163
38 -221 21z m182 -1027 c193 -327 372 -561 619 -808 244 -245 524 -458 820
-625 61 -34 116 -67 123 -74 10 -10 -15 -28 -125 -91 -345 -198 -578 -379
-848 -656 -260 -267 -464 -538 -625 -832 -63 -115 -48 -120 -147 53 -344 600
-843 1097 -1445 1440 -71 40 -128 75 -128 79 0 4 35 27 78 51 338 191 580 370
836 620 277 269 465 513 663 856 43 74 81 134 85 134 4 0 46 -66 94 -147z"/>
<path d="M8914 13539 c-18 -5 -53 -24 -80 -41 -53 -36 -73 -66 -203 -303 -439
-794 -545 -948 -891 -1296 -344 -346 -497 -453 -1175 -827 -159 -88 -319 -179
-355 -201 -124 -79 -165 -198 -120 -353 23 -79 72 -114 460 -329 664 -368 850
-495 1161 -797 305 -295 492 -561 839 -1194 234 -425 263 -464 367 -494 109
-32 218 -3 284 75 36 42 150 235 324 551 281 508 429 714 730 1015 332 333
519 468 1055 764 566 313 593 333 621 458 10 43 9 63 -4 117 -32 129 -50 144
-387 331 -787 436 -934 537 -1276 879 -329 330 -438 485 -809 1156 -236 426
-265 465 -361 489 -51 13 -136 13 -180 0z m210 -1078 c453 -793 1000 -1326
1828 -1780 43 -23 80 -46 83 -51 3 -4 -79 -57 -183 -116 -413 -237 -683 -439
-977 -730 -323 -321 -537 -608 -796 -1071 -40 -72 -77 -129 -80 -127 -4 2 -28
43 -54 90 -240 445 -478 768 -799 1089 -303 303 -580 513 -966 733 -96 54
-187 106 -203 114 l-27 14 163 91 c446 247 718 453 1067 809 293 299 472 536
680 899 120 210 142 247 145 243 2 -2 55 -95 119 -207z"/>
<path d="M24285 6675 c-364 -57 -765 -274 -1001 -541 -185 -210 -301 -405
-379 -640 -71 -212 -79 -267 -79 -569 0 -247 2 -278 22 -365 92 -386 242 -653
513 -916 241 -233 493 -369 844 -456 82 -20 115 -22 355 -22 298 0 363 8 555
71 260 84 466 209 674 408 260 250 409 508 503 871 l33 129 -1 285 0 285 -36
136 c-78 290 -182 495 -359 704 -258 306 -567 503 -935 594 -153 39 -541 53
-709 26z m476 -566 c358 -46 707 -305 883 -657 76 -151 101 -254 111 -457 13
-252 -21 -425 -121 -615 -91 -172 -245 -349 -391 -448 -133 -90 -312 -164
-467 -191 -86 -16 -348 -13 -427 3 -373 79 -689 328 -848 667 -89 189 -111
292 -111 514 0 226 23 328 120 530 157 327 466 570 820 645 99 22 302 26 431
9z"/>
<path d="M10065 5524 c-436 -31 -798 -196 -1105 -504 -247 -247 -410 -553
-486 -910 -31 -145 -42 -387 -25 -542 81 -745 594 -1337 1331 -1535 89 -24
113 -26 383 -30 311 -5 358 0 534 53 274 82 501 216 712 419 228 219 374 447
465 725 68 209 79 287 79 560 0 214 -2 257 -21 343 -106 485 -384 895 -780
1152 -194 125 -448 222 -667 254 -77 11 -341 21 -420 15z m352 -585 c197 -27
428 -146 597 -309 147 -141 271 -342 334 -540 26 -83 27 -91 26 -325 0 -285
-9 -328 -104 -521 -183 -375 -519 -622 -917 -675 -174 -23 -385 -1 -553 59
-309 109 -597 395 -715 707 -53 143 -68 235 -68 425 -1 198 16 291 80 449 160
398 543 693 963 745 52 6 270 -3 357 -15z"/>
</g>
</svg>
