<?xml version="1.0" standalone="no"?>
<!DOCTYPE svg PUBLIC "-//W3C//DTD SVG 20010904//EN"
 "http://www.w3.org/TR/2001/REC-SVG-20010904/DTD/svg10.dtd">
<svg version="1.0" xmlns="http://www.w3.org/2000/svg"
 width="351.000000pt" height="351.000000pt" viewBox="0 0 351.000000 351.000000"
 preserveAspectRatio="xMidYMid meet">
<metadata>
Created by potrace 1.14, written by Peter Selinger 2001-2017
</metadata>
<g transform="translate(0.000000,351.000000) scale(0.100000,-0.100000)"
fill="#000000" stroke="none">
<path d="M1855 3254 c-192 -19 -336 -53 -482 -114 -454 -190 -789 -595 -895
-1083 -30 -137 -32 -455 -5 -589 41 -204 136 -425 253 -590 75 -106 246 -276
350 -351 163 -115 345 -197 544 -244 155 -37 418 -43 585 -15 244 42 457 134
654 283 94 70 151 149 181 248 20 65 20 88 18 976 l-3 910 -37 78 c-45 93
-108 160 -228 239 -174 114 -391 201 -580 232 -100 16 -287 27 -355 20z m542
-588 c117 -54 192 -161 201 -288 6 -85 -21 -146 -81 -186 l-40 -27 -359 -3
-359 -3 -22 27 c-71 88 -113 122 -169 139 -74 21 -131 13 -200 -29 -76 -45
-112 -107 -116 -200 -3 -63 0 -78 25 -126 47 -90 138 -140 253 -140 91 1 153
42 248 164 l22 29 158 -47 c228 -68 503 -167 509 -184 3 -8 0 -18 -8 -23 -8
-5 -119 -9 -247 -9 l-234 0 -29 31 -28 30 -36 -35 c-33 -34 -34 -36 -15 -46
11 -6 26 -22 33 -36 l14 -26 22 31 22 31 249 0 c249 0 282 -4 249 -34 -27 -25
-605 -216 -651 -216 -8 0 -36 27 -62 60 -82 106 -169 143 -281 120 -120 -25
-206 -120 -213 -235 -5 -78 8 -120 55 -175 110 -129 294 -118 401 23 32 42 51
58 75 62 18 4 178 5 357 3 283 -3 329 -5 356 -20 46 -25 92 -83 100 -124 28
-150 -67 -317 -215 -376 -55 -23 -61 -23 -586 -26 -554 -3 -622 1 -697 39 -62
32 -125 96 -155 158 l-28 56 -3 681 c-2 667 -2 683 18 737 23 62 85 137 140
172 85 54 90 54 700 52 l565 -2 62 -29z"/>
</g>
</svg>
