<?xml version="1.0" standalone="no"?>
<!DOCTYPE svg PUBLIC "-//W3C//DTD SVG 20010904//EN"
 "http://www.w3.org/TR/2001/REC-SVG-20010904/DTD/svg10.dtd">
<svg version="1.0" xmlns="http://www.w3.org/2000/svg"
 width="351.000000pt" height="351.000000pt" viewBox="0 0 351.000000 351.000000"
 preserveAspectRatio="xMidYMid meet">
<metadata>
Created by potrace 1.14, written by Peter Selinger 2001-2017
</metadata>
<g transform="translate(0.000000,351.000000) scale(0.100000,-0.100000)"
fill="#000000" stroke="none">
<path d="M2180 2990 c-399 -56 -754 -215 -1168 -525 -160 -119 -374 -324 -459
-439 -162 -219 -237 -419 -238 -636 0 -125 24 -214 84 -300 95 -139 318 -258
592 -317 117 -25 423 -24 564 1 404 73 768 222 932 381 61 59 71 101 31 129
-36 26 -77 19 -183 -30 -314 -144 -396 -175 -599 -225 -504 -123 -880 -42
-1008 218 -116 235 39 599 404 949 281 270 679 499 1013 585 117 30 284 33
332 6 70 -38 80 -115 33 -260 -31 -98 -37 -155 -20 -188 14 -26 62 -49 103
-49 74 0 202 55 257 110 43 43 60 109 60 235 0 67 -4 90 -25 132 -46 93 -155
170 -291 208 -70 19 -316 28 -414 15z"/>
<path d="M2304 2523 c-30 -31 -43 -78 -64 -244 -32 -252 -68 -483 -111 -721
-21 -120 -39 -226 -39 -237 0 -25 46 -61 78 -61 37 0 85 57 171 201 137 228
232 360 287 395 43 29 73 1 88 -81 3 -16 11 -81 17 -144 14 -143 39 -230 80
-270 47 -47 105 -53 144 -15 19 19 14 40 -26 103 -42 65 -66 152 -84 299 -26
215 -56 282 -126 282 -108 0 -251 -147 -410 -423 -31 -54 -59 -94 -62 -90 -12
19 45 305 109 553 39 153 64 292 64 363 0 40 -5 54 -29 78 -33 33 -62 37 -87
12z"/>
<path d="M1290 2111 c-90 -29 -175 -97 -245 -196 -95 -135 -135 -249 -135
-390 0 -116 14 -160 70 -216 56 -56 118 -75 219 -66 161 15 391 200 379 305
-2 15 -10 28 -18 29 -8 2 -46 -26 -85 -62 -193 -181 -426 -193 -429 -22 -1 46
-17 33 180 157 113 72 202 154 239 221 23 43 29 67 30 116 0 57 -3 65 -32 95
-28 27 -40 32 -90 34 -32 2 -69 0 -83 -5z m68 -113 c34 -34 -10 -124 -94 -194
-85 -71 -199 -143 -202 -129 -2 8 11 47 27 87 65 154 217 288 269 236z"/>
<path d="M1763 1480 c-21 -8 -23 -16 -23 -79 0 -104 36 -128 113 -74 63 44 86
112 49 146 -20 19 -101 22 -139 7z"/>
</g>
</svg>
